# Blender v2.80 (sub 75) OBJ File: ''
# www.blender.org
v 0.000000 0.900000 0.000000
v 0.450000 0.450000 -0.450000
v -0.450000 0.450000 -0.450000
v 0.000000 0.000000 -0.900000
v 0.450000 0.450000 0.450000
v 0.900000 0.000000 0.000000
v -0.450000 0.450000 0.450000
v 0.000000 -0.000000 0.900000
v -0.900000 0.000000 0.000000
v -0.450000 -0.450000 -0.450000
v 0.450000 -0.450000 -0.450000
v 0.450000 -0.450000 0.450000
v -0.450000 -0.450000 0.450000
v 0.000000 -0.900000 -0.000000
vn 0.0000 0.7071 -0.7071
vn 0.7071 0.7071 0.0000
vn 0.0000 0.7071 0.7071
vn -0.7071 0.7071 0.0000
vn -0.7071 0.0000 -0.7071
vn 0.7071 0.0000 -0.7071
vn 0.7071 0.0000 0.7071
vn -0.7071 0.0000 0.7071
vn -0.7071 -0.7071 -0.0000
vn 0.0000 -0.7071 -0.7071
vn 0.7071 -0.7071 -0.0000
vn 0.0000 -0.7071 0.7071
s off
f 1//1 2//1 3//1
f 3//1 2//1 4//1
f 1//2 5//2 2//2
f 2//2 5//2 6//2
f 1//3 7//3 5//3
f 5//3 7//3 8//3
f 1//4 3//4 7//4
f 3//4 9//4 7//4
f 3//5 4//5 9//5
f 9//5 4//5 10//5
f 2//6 6//6 4//6
f 4//6 6//6 11//6
f 5//7 8//7 6//7
f 6//7 8//7 12//7
f 7//8 9//8 8//8
f 9//8 13//8 8//8
f 9//9 10//9 13//9
f 13//9 10//9 14//9
f 4//10 11//10 10//10
f 10//10 11//10 14//10
f 6//11 12//11 11//11
f 11//11 12//11 14//11
f 8//12 13//12 12//12
f 13//12 14//12 12//12
